<?xml version="1.0" encoding="UTF-8"?>
<svg xmlns="http://www.w3.org/2000/svg" viewBox="0 0 1310.76 584.8">
  <defs>
    <style>
      .cls-1 {
        fill: #007bd0;
      }

      .cls-1, .cls-2, .cls-3, .cls-4, .cls-5 {
        stroke-width: 0px;
      }

      .cls-6 {
        letter-spacing: 0em;
      }

      .cls-7 {
        font-family: CooperBlack, 'Cooper Black';
        font-size: 144px;
      }

      .cls-7, .cls-3 {
        fill: #fff;
      }

      .cls-4 {
        fill: #a7a7b7;
      }

      .cls-8 {
        letter-spacing: -.05em;
      }

      .cls-9 {
        letter-spacing: 0em;
      }

      .cls-5 {
        fill: #00c3e7;
      }

      .cls-10 {
        letter-spacing: -.02em;
      }
    </style>
  </defs>
  <g id="Layer_1" data-name="Layer 1">
    <path class="cls-5" d="m128.5,459.22c.78,8.21-1.43,14.09-5.36,24.51-2.19,5.81-9.15,16.46-22.98,37.53-5.45,8.3-10.48,15.73-19.15,17.62-1.67.36-2.89.39-5.21.45-13.86.34-19.4-5.85-24.67-2.75-2.72,1.6-4.72,5.3-3.83,7.66,2.26,5.97,22.94,3.19,22.98,3.83.04.77-29.65.48-30.64,6.13-.51,2.9,6.49,7.87,13.79,8.43,13.7,1.05,25.45-13.67,26.04-13.02.67.74-17.89,15.88-15.32,20.68,1.6,3,11.6,2.25,19.91-1.53,17.92-8.16,17.73-25.75,33.7-29.87,4.13-1.06,3.14.37,13.79-.77,4.24-.45,25.04-2.67,25.28-6.89.15-2.75-8.37-6.19-16.09-6.89-10.03-.92-14.83,3.14-16.85,1.53-3.21-2.55,2.2-18.14,36-71.23.25-2.79.38-9.08-3.61-14.23-8.26-10.68-28.46-8.96-32.39-1.85-2.6,4.7,3.47,8.94,4.6,20.68Z"/>
    <path class="cls-5" d="m205.1,445.43c2.7,12-.6,13.4-8.43,58.21-5.22,29.9-5.62,40.01-13.02,42.89-7.62,2.97-16.54-4.09-22.98,1.53-2.36,2.06-4.16,5.62-3.06,7.66,2.34,4.37,17.65,1.11,17.62.77-.03-.36-17.33-2.32-23.74,6.13-2.46,3.24-3.55,8.3-1.53,10.72,3.39,4.08,14.84-.17,20.86-2.41,9.88-3.67,16.12-8.3,16.67-7.55.89,1.2-15.6,12.36-13.79,16.09,1.33,2.74,13.17,2.62,20.68-3.83,7.65-6.56,5.26-14.9,13.02-29.87,6.77-13.06,8.8-14.32,9.96-14.55,7.57-1.52,13.07,12.27,22.21,10.72,3.84-.65,7.62-3.88,7.66-6.89.07-5.1-10.63-5.78-18.38-13.02-12.67-11.82-9.96-34.1-8.43-46.72,2.25-18.54,12.69-20.63,13.02-37.53.06-3.1.43-21.71-9.19-25.28-7.02-2.6-17.08,3.64-20.68,11.49-3.27,7.13-.25,13.52,1.53,21.45Z"/>
    <path class="cls-5" d="m263.7,298.08c4.21-3.22,15.92-12.2,25-7.35,6.19,3.3,10.1,12.46,7.35,17.65-3.73,7.04-17.11,1.75-26.47,10.29-6.15,5.62-9.54,15.71-7.35,17.65.61.54,1.56.37,2.09.27,9.48-1.78,14.48-5.86,19.97-6.16,9.39-.5,18.99,10.16,19.12,10.29,0,0,0,0,0,0,.02.11-21.78-3.81-35.42,5.3-10.79,7.21-11.7,19.36-16.34,18.72-4.85-.67-6.59-14.3-6.81-16-.21-1.64-3.76-33.33,18.86-50.67Z"/>
    <g id="Layer_3" data-name="Layer 3">
      <path class="cls-4" d="m97.78,14.46c2.78.17,6.7.4,10.21,3.06,4.66,3.53,6.21,9.74,9.53,20.43,1.27,4.1.87,4.67,1.7,5.79,1.28,1.73,20.38.41,27.57.34,8.62-.09,13.96-.14,18.38,3.4,6.5,5.21,10.75,17.99,4.09,24.85-3.52,3.62-7.87.52-21.11,1.02-8.08.31-24.89.95-33.36,11.57-2.18,2.73-3.16,5.34-5.11,10.55-4.8,12.82-3.23,20.74-5.79,21.45-2.51.69-6.58-6.22-13.28-19.4-17.72-34.92-18.85-45.04-19.06-51.06-.29-8.03-.45-16.02,5.11-22.81,4.8-5.86,12.92-9.68,21.11-9.19Z"/>
    </g>
    <path class="cls-1" d="m24,205.43C12.52,237.44,2.89,239.78.47,259.84c-2.85,23.56,7.72,42.65,19.12,63.24,8.3,15,21.7,39.2,48.53,57.35,19.03,12.87,33.32,14.93,39.71,30.88,4.89,12.21.84,21.79,8.82,27.94,2.17,1.67,4.76,2.15,7.6,2.86,4.8,1.2,9.09,1.25,18.87.09,12.06-1.43,18.14-2.18,19.12-4.41,2.46-5.63-9.61-13.03-7.35-17.65,2.15-4.41,16.34-4.19,27.94,1.47,12.13,5.92,12.22,13.3,20.59,14.71,12.36,2.07,28.54-11.28,27.94-22.06-.55-9.82-14.92-15.51-13.24-19.12,1.47-3.14,11.75,2.46,20.59-1.47,12.76-5.67,15.89-28.21,14.71-42.65-.94-11.54-5.18-20.35-7.41-24.9-3.52-7.2-7.82-13.22-13.18-19.22-26.46-29.67-60.29-45.59-60.29-45.59-38.5-17.35-51.24-7.37-67.65-25-19.97-21.47-17.88-54.33-17.65-57.35.42-5.44,2.81-12.93,7.35-27.94,8.62-28.51,14.15-36,10.29-47.06-2.64-7.58-6.02-6.28-11.76-19.12-1.94-4.34-3.75-10.25-7.35-22.06-3.53-11.56-4.11-14.51-4.41-16.18-1.95-10.82-2.97-16.47,0-20.59,5.42-7.52,18.89-2.71,20.59-7.35,1.61-4.43-8.52-14.53-20.59-17.65-16.17-4.17-30.52,5.58-35.29,8.82-5.26,3.57-16.39,11.13-19.12,23.53-2.83,12.87,5.72,20.33,11.76,35.29,7.33,18.14,3.91,40.04-2.94,83.82-3.62,23.14-5.59,35.72-11.76,52.94Z"/>
    <path class="cls-5" d="m95.74,87.99c.28,1.61,10.93,1.67,20.09-.34,4.7-1.03,8.24-1.81,12.6-4.09,5.64-2.94,7.2-5.55,10.55-5.11,3.35.45,3.53,3.29,8.51,5.79,1.24.62,5.56,2.79,9.87,2.04,6.92-1.2,6.97-8.71,13.28-10.89,8.4-2.91,16.67,7.52,19.4,5.11,2.58-2.29-2.6-13.59-9.53-21.79-3.09-3.65-7.6-9.31-15.66-12.6-3.76-1.53-11.8-4.81-16-1.36-4.73,3.88,1.15,11.53-3.06,19.74-1.73,3.37-4.63,5.8-26.21,13.96-17.37,6.56-24.06,8.22-23.83,9.53Z"/>
    <path class="cls-2" d="m95.05,39.65c.49,1.08,2.07,4.59,5.79,5.79,4.03,1.3,9.48-.47,11.23-4.77,1.98-4.86-1.91-10.14-6.13-11.91-.55-.23-3.86-1.71-7.47-.36-.83.31-2.63.98-3.76,2.75-2.09,3.25-.16,7.4.34,8.51Z"/>
    <path class="cls-3" d="m97.44,36.24c.56,1.08,2.07,4,3.06,3.74,1.03-.27,1.77-4.01,0-6.13-1.19-1.42-3.45-2.04-4.09-1.36-.59.63.28,2.32,1.02,3.74Z"/>
  </g>
  <g id="Layer_4" data-name="Layer 4">
    <path class="cls-2" d="m43.26,551.46c-7.33.68-10.86,10.08-8.97,12.7,2.6,3.6,18.71-1.1,19.15-6.13.26-3-5-7.05-10.18-6.57Z"/>
    <path class="cls-2" d="m66.39,563.95c-4.97,1.98-9.59,7.42-8.35,10.93,1.57,4.46,12.98,6.89,17.62,1.53,2.82-3.26,3.25-9.53,0-12.26-3.15-2.64-8.2-.63-9.26-.21Z"/>
    <path class="cls-2" d="m56.48,535.93c-.52-.55-1.61.37-6.02,1.72-8.12,2.49-11.11,1.44-12.34,3.53-1.71,2.89,1.29,9.49,5.14,10.28,6.42,1.31,14.98-13.66,13.22-15.53Z"/>
    <path class="cls-2" d="m152.54,561.43c-3.83-1.96-12.91,5.04-11.79,9.63.83,3.39,7.5,6.49,11.67,3.73,4.71-3.11,3.26-11.75.12-13.36Z"/>
    <path class="cls-2" d="m176.57,574.02c-5.23.02-8.1,7.01-6.7,9.29,1.8,2.93,12.65,1.25,13.58-2.57.6-2.48-2.79-6.73-6.87-6.71Z"/>
    <path class="cls-2" d="m160.67,548.07c-.37-.24-.96.11-1.53.41-5.18,2.71-9.58,1.26-9.96,2.66-.44,1.59,4.53,6.32,8.43,4.6,3.37-1.49,4.1-6.97,3.06-7.66Z"/>
    <text class="cls-7" transform="translate(155.46 230.57)"><tspan class="cls-10" x="0" y="0">F</tspan><tspan class="cls-9" x="91.76" y="0">r</tspan><tspan x="169.52" y="0">u</tspan><tspan class="cls-6" x="267.12" y="0">g</tspan><tspan x="349.88" y="0">al</tspan></text>
    <text class="cls-7" transform="translate(312.6 353.12)"><tspan class="cls-8" x="0" y="0">F</tspan><tspan x="87.82" y="0">oods</tspan></text>
    <text/>
  </g>
</svg>